<?xml version="1.0" standalone="no"?>
<!DOCTYPE svg PUBLIC "-//W3C//DTD SVG 20010904//EN"
 "http://www.w3.org/TR/2001/REC-SVG-20010904/DTD/svg10.dtd">
<svg version="1.0" xmlns="http://www.w3.org/2000/svg"
 width="128.000000pt" height="128.000000pt" viewBox="0 0 128.000000 128.000000"
 preserveAspectRatio="xMidYMid meet">
<metadata>
Created by potrace 1.14, written by Peter Selinger 2001-2017
</metadata>
<g transform="translate(0.000000,128.000000) scale(0.100000,-0.100000)"
fill="#000000" stroke="none">
<path d="M1011 1170 c-13 -38 -33 -46 -72 -30 -26 11 -31 11 -43 -6 -12 -16
-12 -23 0 -46 13 -25 12 -30 -6 -48 -11 -11 -26 -20 -34 -20 -15 0 -25 -27
-19 -47 3 -7 11 -13 19 -13 8 0 23 -9 34 -20 18 -18 18 -22 5 -53 -13 -32 -13
-35 9 -47 18 -9 28 -9 46 0 29 16 49 6 61 -30 14 -40 57 -39 71 1 12 34 29 41
69 27 40 -14 67 8 50 40 -24 45 -9 72 39 72 30 0 20 39 -17 67 -33 26 -41 50
-24 81 6 12 5 23 -4 36 -12 16 -18 17 -46 7 -44 -15 -45 -15 -68 24 -26 44
-55 46 -70 5z m95 -121 c41 -39 29 -109 -22 -134 -41 -19 -77 -12 -104 22 -67
85 47 186 126 112z"/>
<path d="M829 1164 c-109 -39 -343 -223 -439 -344 l-30 -38 138 2 c122 1 249
-7 292 -19 8 -2 31 -7 50 -10 19 -3 77 -15 128 -26 52 -11 95 -19 97 -17 2 2
-34 18 -79 37 -87 35 -165 87 -199 133 -39 52 -13 151 64 249 42 54 40 56 -22
33z"/>
<path d="M368 752 c-37 -4 -35 -17 5 -32 140 -55 493 -250 676 -373 l74 -50
18 24 c56 74 68 270 20 313 -30 28 -184 65 -373 91 -21 3 -53 7 -70 9 -106 15
-298 25 -350 18z"/>
<path d="M296 659 c-8 -48 -44 -124 -82 -168 -14 -18 -25 -33 -23 -35 2 -2 27
-7 54 -10 28 -4 61 -9 75 -11 69 -9 281 -53 340 -70 140 -40 395 -128 468
-162 58 -27 44 -8 -41 54 -184 136 -355 243 -525 328 -101 50 -245 115 -255
115 -2 0 -7 -18 -11 -41z"/>
<path d="M124 422 c-15 -2 -29 -20 -47 -60 -28 -62 -67 -215 -67 -262 l0 -30
636 0 c421 0 633 3 629 10 -3 6 -10 10 -15 10 -5 0 -33 11 -62 24 -212 97
-527 208 -718 254 -127 31 -318 60 -356 54z"/>
</g>
</svg>
